Coordinates
version=1
nRows=7
nColumns=40
inDegrees=yes

Units are S.I. units (second, meters, Newtons, ...)
Angles are in degrees.

endheader
time	pelvis_tilt	pelvis_list	pelvis_rotation	pelvis_tx	pelvis_ty	pelvis_tz	hip_flexion_r	hip_adduction_r	hip_rotation_r	knee_angle_r	knee_angle_r_beta	ankle_angle_r	subtalar_angle_r	mtp_angle_r	hip_flexion_l	hip_adduction_l	hip_rotation_l	knee_angle_l	knee_angle_l_beta	ankle_angle_l	subtalar_angle_l	mtp_angle_l	lumbar_extension	lumbar_bending	lumbar_rotation	arm_flex_r	arm_add_r	arm_rot_r	elbow_flex_r	pro_sup_r	wrist_flex_r	wrist_dev_r	arm_flex_l	arm_add_l	arm_rot_l	elbow_flex_l	pro_sup_l	wrist_flex_l	wrist_dev_l
      2.22500000	     -0.72834697	     -4.25729930	     -1.48912085	      1.01911266	      0.92729067	      0.43848765	     24.69402782	     -6.67400311	     -8.07230354	     64.08106547	     64.08106547	      6.86337653	    -19.44554133	     17.94093286	     12.93957445	     -3.31846595	     -6.15487803	     27.45532518	     27.45532518	     17.37624296	    -17.74197334	      4.87487040	    -10.73405521	      4.31528511	      2.53950911	      2.52784519	    -12.97331813	     -6.60169475	     25.05907738	     46.52237451	      0.00000000	      0.00000000	     25.11549167	    -14.86636606	     -3.21954559	     57.87851087	     46.54868053	      0.00000000	      0.00000000
      2.24257143	     -0.74824675	     -4.50962915	     -2.03085657	      1.01842836	      0.92753201	      0.43888440	     25.33395280	     -5.79683052	     -7.69434658	     62.34761235	     62.34761235	      7.64373073	    -19.36391587	     17.21908695	     12.53379964	     -3.66849103	     -6.58399597	     27.47208447	     27.47208447	     18.04957724	    -17.53756057	      5.70847867	    -10.96624287	      4.64390096	      2.47972539	      0.57329502	    -12.98840722	     -6.86221276	     24.60544001	     46.55030248	      0.00000000	      0.00000000	     25.06050735	    -15.16342761	     -4.28754030	     61.39525021	     46.71435159	      0.00000000	      0.00000000
      2.26014286	     -0.83395961	     -4.76487539	     -2.59831413	      1.01767531	      0.92795913	      0.43954909	     25.89887817	     -4.88468438	     -7.32577930	     60.04865891	     60.04865891	      8.37133486	    -19.21455942	     16.60677884	     12.05612696	     -4.02348765	     -7.05855740	     27.18985848	     27.18985848	     18.27475293	    -17.47054906	      5.78606706	    -11.04446644	      4.99457627	      2.43391341	     -1.22847224	    -13.01048652	     -6.91068698	     23.95345721	     46.56698542	      0.00000000	      0.00000000	     25.76743921	    -15.46486338	     -4.75354848	     62.36907395	     46.77768097	      0.00000000	      0.00000000
      2.27771429	     -1.15804452	     -4.85843083	     -3.18586522	      1.01677320	      0.92813693	      0.44044256	     26.63926237	     -4.15576850	     -6.95313075	     57.34818950	     57.34818950	      9.15219621	    -18.90257131	     16.28862600	     11.82696426	     -4.21501307	     -7.55073211	     26.84941508	     26.84941508	     18.33840373	    -17.50434056	      5.87614020	    -10.83257844	      5.17814945	      2.16163454	     -2.81235540	    -12.88427998	     -6.95381084	     23.46024309	     46.57656840	      0.00000000	      0.00000000	     26.42906394	    -16.21265926	     -5.15982643	     62.89501317	     46.82391638	      0.00000000	      0.00000000
      2.29528571	     -1.17200178	     -5.24723549	     -3.78632593	      1.01615487	      0.92925464	      0.44158890	     26.59684647	     -3.09655950	     -6.70821751	     53.72201292	     53.72201292	      9.30729229	    -18.53854965	     14.82111081	     11.03916156	     -4.73489893	     -8.14826401	     26.20983168	     26.20983168	     18.48905598	    -17.18588584	      5.84854341	    -11.05358908	      5.68717127	      2.43556999	     -4.53968476	    -12.97003317	     -7.13546740	     23.28953563	     46.58382476	      0.00000000	      0.00000000	     26.81992269	    -16.07926889	     -5.82558689	     64.49253232	     46.90586904	      0.00000000	      0.00000000
      2.31285714	     -1.63933433	     -5.39278101	     -4.39546969	      1.01522981	      0.92961582	      0.44300352	     27.04826668	     -2.40037519	     -6.60139720	     49.97863358	     49.97863358	      9.73328078	    -17.50916306	     14.06287985	     10.78167648	     -5.01928844	     -8.74091824	     25.55738956	     25.55738956	     18.51752408	    -16.97615648	      5.86449213	    -10.73795203	      5.90037402	      2.31477805	     -5.99214563	    -12.79359063	     -7.24556420	     23.11185848	     46.58628018	      0.00000000	      0.00000000	     27.21427833	    -16.61470796	     -6.34727464	     65.25955370	     46.96036101	      0.00000000	      0.00000000
      2.33042857	     -1.69855868	     -5.55671428	     -4.97992742	      1.01475438	      0.93071518	      0.44433534	     26.19614400	     -1.85834502	     -6.95656955	     44.54560785	     44.54560785	      5.92217270	    -17.39072138	      1.23417653	      9.84970328	     -5.26141683	     -9.45446273	     24.50639662	     24.50639662	     17.88468388	    -16.84771003	      4.32834504	    -11.03363858	      6.09872125	      1.84737241	     -7.61277001	    -12.74927881	     -8.66735940	     25.22629031	     46.59643216	      0.00000000	      0.00000000	     26.44342485	    -16.49591693	     -9.25822183	     68.67243484	     47.27679455	      0.00000000	      0.00000000
